<svg width="435" height="144" viewBox="0 0 435 144" fill="none" xmlns="http://www.w3.org/2000/svg">
<g clip-path="url(#clip0_214_6)">
<path d="M48.7001 42.4499C37.8001 49.4999 27.1901 56.1499 17.6001 64.5999L14.7701 67.0899L7.50009 74.3899C4.46009 77.4499 -0.96991 85.2699 1.72009 88.7499C-0.25991 87.9799 -0.23991 85.7299 0.34009 83.8299C2.28009 77.4399 8.87009 70.5899 14.0801 65.9599L18.1601 62.3299C25.5901 55.7199 33.7901 50.5199 42.0901 44.9199L73.3001 23.8599C79.4201 19.7299 84.9901 15.4699 90.6801 10.8099L96.7401 5.09991C99.7701 2.23991 102.88 2.28991 103.36 3.97991C103.48 4.41991 103.24 5.10991 102.74 5.47991C99.0901 8.21991 96.2301 11.5899 93.1501 14.8999L88.4001 19.9999C72.2201 38.6799 57.3201 58.2399 43.8001 79.0299C39.1401 86.1999 35.1701 93.1999 31.4801 100.84C28.7501 106.49 26.6501 112.2 25.6401 118.45C24.9501 122.7 25.5301 128.93 29.0201 131.15C36.6301 135.99 51.9601 127.09 59.9101 121.93C71.5601 114.37 81.9801 105.65 92.2501 96.3699L99.7801 89.1899L116.97 72.0499L126.53 61.6799C130.67 57.1899 134.08 52.6299 137.64 47.6099C146.84 34.6199 156.14 22.0799 166.13 9.71991C168.93 6.24991 171.58 3.07991 174.97 0.309908C175.54 -0.150092 176.72 0.00990802 177.18 0.259908C179.51 1.51991 176.79 6.21991 174.91 9.53991C168.22 21.3999 155.9 35.9199 146.83 46.7099L134.61 61.2599L123.14 77.3699C117.38 85.4599 112.81 93.8499 108.33 102.68C105.29 108.68 102.93 114.69 101.3 121.2C100.64 123.84 100.6 126.3 100.46 128.96C100.16 134.99 102.44 139.95 107.06 143.89C101.89 142.23 99.8501 137.4 98.8201 132.62C98.1101 126.49 98.4601 120.45 100.26 114.44C105.27 97.7699 115 81.3399 125.14 66.8899C123.15 67.2999 122.27 69.1699 121.07 70.4499L115.93 75.9199L95.8901 95.9099C84.0001 107.76 61.6801 125.1 46.2901 131.87C42.6001 133.49 38.8701 134.42 34.9001 134.73C28.4101 135.24 23.4701 131.1 22.8701 124.65C22.4501 120.1 22.6601 115.65 23.9401 111.12C29.0301 93.0299 41.6801 74.2799 52.5301 58.6699C60.7301 46.8599 69.4601 35.8199 78.5801 24.7699C79.8901 23.1799 81.4901 22.2599 82.4401 20.3299L76.1001 24.6499L69.2401 29.1799L48.6601 42.4799L48.7001 42.4499ZM171.21 10.1199C171.3 10.1799 171.52 10.2499 171.77 10.1899L172.8 7.97991L172.53 7.73991C172.09 8.49991 171.32 9.18991 171.2 10.1199H171.21ZM148.23 42.1799L157.14 31.4199C162.54 24.8999 167.81 18.1899 171.17 10.3399L158.4 26.6299L144.71 45.1999C144.9 45.3599 145 45.6699 145.01 45.7999L148.23 42.1799ZM144.4 46.2699C144.34 45.7599 143.8 45.9099 143.91 46.3599C143.77 47.2699 144.74 47.0299 144.4 46.2699ZM142.56 47.8899V48.1499V48.4199V48.6799L142.57 48.4199V47.8799L142.56 47.8899ZM125.93 65.3199V65.5799V65.8499V66.1099L125.94 65.8499V65.3099L125.93 65.3199Z" fill="white" stroke="white" stroke-width="1.2"/>
<path d="M434.31 85.3L425.81 85.6C425.52 85.61 425.37 85.81 425.38 85.96L420.11 86.29L414.03 86.69L409.13 87.13C395.21 88.87 381.82 91.48 368.19 94.87L337.88 103.52L307.08 113.64L287.48 119.16C284.28 120.06 280.67 120.08 277.8 118.45C270.72 114.44 285.49 100.71 288.27 94.17C287.7 93.28 286.27 92.05 285.29 92.17L278.72 96.28C270.9 101.17 262.83 105.26 253.97 107.95C250.93 108.87 247.85 109.58 244.86 108.82C242.65 108.25 241.74 106.22 242.46 104.2C242.72 103.46 243.28 102.77 243.08 102C236.11 106.33 218.12 114.87 216.74 106.97C216.38 104.92 217.83 102.91 218.61 100.69L209.97 106.54C205.99 109.23 197.79 114.21 195.65 111.76C193.94 109.8 195.99 107.06 197.13 104.94C190.57 108.53 180.36 113.82 173.76 112.09C171.48 111.49 170.15 108.84 170.84 106.76L173.73 98C169.06 99.65 165.35 102.35 161.69 105.31L152.71 112.56C151.66 113.41 150.43 114.02 149.43 113.16C148.57 112.43 148.7 111.03 149.42 110.02L158.5 97.23C158.92 96.63 159.32 95.66 158.65 95.18C154.53 96.73 151.28 99.46 147.99 102.13L130.13 116.65C129.2 117.4 127.85 117.42 127.13 116.81C126.53 116.3 126.19 114.96 126.74 114.08C130.84 107.48 135.62 101.56 140.72 95.67C142.34 93.8 144.04 92.35 145.51 90.32C146.54 88.89 148.95 88.09 150.27 89.46C151.04 90.26 150.04 91.9 149.41 92.56L145.02 97.17C140.83 101.58 136.75 105.88 133.37 111.3L145.01 101.99C149.01 98.79 152.86 95.75 157.45 93.35C158.69 92.7 160.69 92.55 161.89 93.19C163.57 94.09 163.36 96.21 162.47 97.61L156.96 106.28C158.58 105.5 159.44 104.59 160.59 103.77L167.18 99.02C170.49 96.63 175.44 94.27 177.26 96.7C178.56 98.44 175.35 102.35 174.08 108.36C173.5 111.13 179.16 110.67 183.77 109.1C190.28 106.89 196.47 103.88 202.03 99.86C205.66 97.23 209.35 95.09 213.73 93.91C216.27 93.23 218.48 94.27 219.9 96.63C221.07 95.86 222.03 94.83 223.34 94.96C224.25 95.05 225.05 95.45 225.34 96.1C225.63 96.75 225.32 97.58 224.79 98.26C222.48 101.18 219.14 106.54 220.46 107.81C223.03 110.28 240.4 102.32 245.69 98.48C247.34 96.15 249.05 94.09 251.19 92.18C252.21 91.89 253.54 92.11 254.14 93.05C254.49 93.6 254.02 94.56 253.56 95C250.23 98.21 247.42 101.68 245.28 105.93C246.11 107.06 247.57 107.28 248.99 107.03C260.82 104.98 273.38 97.82 283.28 91.05C282.52 88.86 283.03 87.38 284.11 85.76C285.04 84.36 287.25 83.14 288.84 84.34C290.43 85.54 287.21 88.24 286.37 90.72L290.61 92.65C291.93 93.25 292 95.43 291.19 96.55L283.56 107.14C281.78 109.61 280.03 111.99 279.17 114.91C278.62 116.79 281.8 117.83 285.53 116.84L301.26 112.67L332.96 102.6C348.76 97.58 364.45 93.54 380.71 90.36L389.28 88.68L401.23 86.93L406.77 86.29L411.6 85.9L415.66 85.59C416.92 85.49 418.15 85.27 419.36 85.27L434.31 85.31V85.3ZM198.77 110.22C201.04 109.56 202.79 108.78 204.55 107.61L218.76 98.17C217.79 97.55 217.05 96.5 215.94 96.29C214.6 96.03 212.87 97 211.73 97.78L204.5 102.7C202.26 104.22 198.33 108.2 198.77 110.22Z" fill="white" stroke="white" stroke-width="1.2"/>
<path d="M261.92 78.73C262.18 80.91 257.79 84.77 256.1 82.53C255.11 81.22 257.39 78.18 259.37 77.67C260.25 77.44 261.79 77.65 261.91 78.72L261.92 78.73Z" fill="white" stroke="white" stroke-width="1.2"/>
</g>
<defs>
<clipPath id="clip0_214_6">
<rect width="434.31" height="143.88" fill="white"/>
</clipPath>
</defs>
</svg>
